<?xml version="1.0" encoding="UTF-8"?>
<!-- Generated by Pixelmator Pro 4.0 -->
<svg width="1024" height="1024" viewBox="0 0 1024 1024" xmlns="http://www.w3.org/2000/svg">
    <path id="Games" fill="#ffffff" stroke="none" d="M 681.620361 489.776855 L 681.620361 505.401855 C 678.324463 503.28595 674.896362 501.688904 671.335938 500.610596 C 667.775513 499.532288 664.205017 498.993164 660.624268 498.993164 C 656.636597 498.993164 653.62561 499.572998 651.591064 500.732666 C 649.556519 501.892334 648.539307 503.61145 648.539307 505.890137 C 648.539307 509.145386 652.893127 511.790161 661.60083 513.824707 L 662.272217 514.007813 L 667.39917 515.228516 C 673.909607 516.77478 678.680481 519.266968 681.711914 522.705322 C 684.743347 526.143677 686.259033 530.79248 686.259033 536.651855 C 686.259033 543.691284 683.94989 548.970764 679.331543 552.490479 C 674.713196 556.010193 667.765442 557.77002 658.488037 557.77002 C 654.378296 557.77002 650.166931 557.41394 645.85376 556.701904 C 641.540588 555.989868 637.166443 554.921753 632.731201 553.497559 L 632.731201 537.872559 C 636.678162 540.110535 640.696289 541.819458 644.785645 542.999512 C 648.875 544.179565 652.832092 544.769531 656.656982 544.769531 C 660.848083 544.769531 664.021851 544.15918 666.178467 542.938477 C 668.335083 541.717773 669.41333 539.947754 669.41333 537.628418 C 669.41333 535.349731 668.650391 533.600098 667.124512 532.379395 C 665.598633 531.158691 661.967041 529.856628 656.229736 528.473145 L 651.285889 527.374512 C 644.44989 525.828247 639.465454 523.407227 636.332275 520.111328 C 633.199097 516.81543 631.632568 512.400574 631.632568 506.866699 C 631.632568 500.274902 634.012939 495.147949 638.773682 491.48584 C 643.534424 487.82373 650.227905 485.992676 658.854248 485.992676 C 662.719849 485.992676 666.575195 486.308044 670.42041 486.938721 C 674.265625 487.569397 677.998901 488.515442 681.620361 489.776855 Z M 615.638916 552.643066 C 611.488525 554.352051 607.256775 555.633789 602.943604 556.488281 C 598.630432 557.342773 594.073181 557.77002 589.271729 557.77002 C 577.837769 557.77002 569.099609 554.70813 563.057129 548.584229 C 557.014648 542.460327 553.993408 533.640869 553.993408 522.125488 C 553.993408 510.976318 556.90271 502.166992 562.721436 495.697266 C 568.540161 489.227539 576.47467 485.992676 586.525146 485.992676 C 596.657043 485.992676 604.520325 488.99353 610.115234 494.995361 C 615.710144 500.997192 618.507568 509.450439 618.507568 520.355469 L 618.507568 527.618652 L 572.181885 527.618652 C 572.222595 532.989746 573.809448 536.997681 576.942627 539.642578 C 580.075806 542.287476 584.755066 543.609863 590.980713 543.609863 C 595.090454 543.609863 599.139038 543.019897 603.126709 541.839844 C 607.11438 540.65979 611.285034 538.788086 615.638916 536.224609 Z M 600.502197 514.190918 C 600.420837 509.470825 599.210327 505.90033 596.870605 503.479248 C 594.530884 501.058167 591.082458 499.847656 586.525146 499.847656 C 582.415405 499.847656 579.139893 501.098877 576.698486 503.601318 C 574.25708 506.10376 572.812561 509.653931 572.36499 514.251953 Z M 517.736084 494.476563 C 519.078857 491.587524 520.787842 489.451355 522.863037 488.067871 C 524.938232 486.684387 527.481323 485.992676 530.492432 485.992676 C 536.392517 485.992676 540.47168 488.027161 542.72998 492.096191 C 544.988281 496.165222 546.117432 504.628662 546.117432 517.486816 L 546.117432 556 L 531.468994 556 L 531.468994 512.115723 C 531.468994 507.029419 531.082397 503.631836 530.309326 501.922852 C 529.536255 500.213867 528.132446 499.359375 526.0979 499.359375 C 524.063354 499.359375 522.639282 500.234192 521.825439 501.983887 C 521.011597 503.733582 520.604736 507.11084 520.604736 512.115723 L 520.604736 556 L 506.139404 556 L 506.139404 512.115723 C 506.139404 507.11084 505.732513 503.733582 504.918701 501.983887 C 504.104889 500.234192 502.680756 499.359375 500.64624 499.359375 C 498.611725 499.359375 497.207916 500.213867 496.434814 501.922852 C 495.661713 503.631836 495.275146 507.029419 495.275146 512.115723 L 495.275146 556 L 480.626709 556 L 480.626709 487.640625 L 493.627197 487.640625 L 493.627197 494.720703 C 494.64447 492.035156 496.272034 489.909119 498.51001 488.342529 C 500.747986 486.77594 503.250397 485.992676 506.017334 485.992676 C 508.784271 485.992676 511.307037 486.81665 513.585693 488.4646 C 515.86438 490.112549 517.247803 492.116516 517.736084 494.476563 Z M 445.590088 523.895508 C 438.91687 523.895508 434.257904 524.75 431.613037 526.458984 C 428.96817 528.167969 427.645752 531.097656 427.645752 535.248047 C 427.645752 538.340515 428.561279 540.802246 430.392334 542.633301 C 432.223389 544.464355 434.705475 545.379883 437.838623 545.379883 C 442.558685 545.379883 446.220764 543.599731 448.824951 540.039307 C 451.429138 536.478882 452.731201 531.504578 452.731201 525.116211 L 452.731201 523.895508 Z M 470.492432 516.998535 L 470.492432 556 L 452.731201 556 L 452.731201 548.370605 C 450.574615 551.381714 447.807709 553.700989 444.43042 555.328613 C 441.053131 556.956238 437.330017 557.77002 433.260986 557.77002 C 425.489136 557.77002 419.436554 555.71521 415.103027 551.605469 C 410.769501 547.495728 408.602783 541.758484 408.602783 534.393555 C 408.602783 526.418213 411.186584 520.528442 416.354248 516.723877 C 421.521912 512.919312 429.517456 511.01709 440.341064 511.01709 L 452.731201 511.01709 L 452.731201 508.026367 C 452.731201 505.137329 451.683441 502.950317 449.587891 501.465088 C 447.49234 499.979858 444.410095 499.237305 440.341064 499.237305 C 436.068573 499.237305 431.928406 499.776428 427.92041 500.854736 C 423.912415 501.933044 419.731537 503.652161 415.377686 506.012207 L 415.377686 490.753418 C 419.324646 489.125793 423.332581 487.925476 427.401611 487.152344 C 431.470642 486.379211 435.783752 485.992676 440.341064 485.992676 C 451.449524 485.992676 459.25177 488.250977 463.748047 492.767578 C 468.244324 497.28418 470.492432 505.361084 470.492432 516.998535 Z M 383.331787 539.520508 L 383.331787 522.125488 L 371.002686 522.125488 L 371.002686 506.98877 L 399.078857 506.98877 L 399.078857 548.736816 C 395.620178 551.707214 391.805511 553.955322 387.634766 555.481201 C 383.46402 557.00708 378.998322 557.77002 374.237549 557.77002 C 362.437347 557.77002 353.322876 553.670532 346.893799 545.471436 C 340.464722 537.272339 337.250244 525.624878 337.250244 510.528809 C 337.250244 495.188538 340.495239 483.46991 346.985352 475.372559 C 353.475464 467.275208 362.844269 463.226563 375.092041 463.226563 C 378.754181 463.226563 382.355194 463.745361 385.895264 464.782959 C 389.435333 465.820557 392.751526 467.315918 395.843994 469.269043 L 395.843994 489.227539 C 393.321198 485.97229 390.422058 483.520752 387.146484 481.872803 C 383.870911 480.224854 380.28006 479.400879 376.373779 479.400879 C 369.537811 479.400879 364.431244 481.974487 361.053955 487.121826 C 357.676666 492.269165 355.988037 500.071411 355.988037 510.528809 C 355.988037 520.660706 357.615631 528.371399 360.87085 533.661133 C 364.126068 538.950867 368.866425 541.595703 375.092041 541.595703 C 376.963806 541.595703 378.59137 541.422729 379.974854 541.076904 C 381.358337 540.731079 382.477295 540.21228 383.331787 539.520508 Z"/>
</svg>
